<svg xmlns="http://www.w3.org/2000/svg" viewBox="0 0 1366 416" width="1366" height="416">
<rect width="100%" height="100%" fill="black" />
<path d="M 0 0 L 0 30 L 1 31 L 0 32 L 0 79 L 7 79 L 8 80 L 7 81 L 0 81 L 0 96 L 7 96 L 8 97 L 7 98 L 0 98 L 0 110 L 4 110 L 5 111 L 4 112 L 0 112 L 0 124 L 31 124 L 32 125 L 31 126 L 0 126 L 0 134 L 3 134 L 4 135 L 3 136 L 0 136 L 0 154 L 1 155 L 0 156 L 0 215 L 37 215 L 38 216 L 37 217 L 0 217 L 0 235 L 1 236 L 0 237 L 0 289 L 2 289 L 3 290 L 2 291 L 0 291 L 0 326 L 32 326 L 33 327 L 32 328 L 0 328 L 0 406 L 7 406 L 8 407 L 7 408 L 0 408 L 0 415 L 27 415 L 28 414 L 29 415 L 86 415 L 87 414 L 88 415 L 91 415 L 92 414 L 95 414 L 96 415 L 97 415 L 98 414 L 99 415 L 100 414 L 119 414 L 120 415 L 121 414 L 122 415 L 206 415 L 207 414 L 208 415 L 220 415 L 221 414 L 222 415 L 279 415 L 280 414 L 281 415 L 324 415 L 325 414 L 326 415 L 335 415 L 336 414 L 337 415 L 378 415 L 378 412 L 379 411 L 380 412 L 380 415 L 524 415 L 524 405 L 525 404 L 526 405 L 526 415 L 557 415 L 557 392 L 558 391 L 559 392 L 559 415 L 563 415 L 563 414 L 564 413 L 565 414 L 565 415 L 602 415 L 603 414 L 604 415 L 621 415 L 621 414 L 622 413 L 623 414 L 623 415 L 655 415 L 656 414 L 657 415 L 678 415 L 678 402 L 679 401 L 680 402 L 680 415 L 742 415 L 742 414 L 743 413 L 744 414 L 744 415 L 772 415 L 772 408 L 773 407 L 774 408 L 774 415 L 834 415 L 835 414 L 836 415 L 859 415 L 860 414 L 861 415 L 1057 415 L 1057 413 L 1058 412 L 1059 413 L 1059 415 L 1095 415 L 1096 414 L 1097 415 L 1365 415 L 1110 415 L 1109 414 L 1110 413 L 1365 413 L 1365 411 L 1112 411 L 1111 410 L 1112 409 L 1365 409 L 1365 394 L 1328 394 L 1327 393 L 1328 392 L 1365 392 L 1365 364 L 1038 364 L 1037 363 L 1038 362 L 1365 362 L 1365 337 L 1364 336 L 1365 335 L 1365 317 L 1364 316 L 1365 315 L 1365 296 L 1360 296 L 1359 295 L 1360 294 L 1365 294 L 1365 288 L 1352 288 L 1351 287 L 1352 286 L 1365 286 L 1365 283 L 1344 283 L 1343 282 L 1344 281 L 1365 281 L 1365 280 L 1342 280 L 1341 279 L 1342 278 L 1365 278 L 1365 226 L 1360 226 L 1359 225 L 1360 224 L 1365 224 L 1365 203 L 1344 203 L 1343 202 L 1344 201 L 1365 201 L 1365 146 L 1350 146 L 1349 145 L 1350 144 L 1365 144 L 1365 135 L 1358 135 L 1357 134 L 1358 133 L 1365 133 L 1365 119 L 1352 119 L 1351 118 L 1352 117 L 1365 117 L 1365 115 L 1342 115 L 1341 114 L 1342 113 L 1365 113 L 1365 0 L 1180 0 L 1179 1 L 1178 0 L 1158 0 L 1157 1 L 1156 0 L 1132 0 L 1131 1 L 1130 0 L 1100 0 L 1099 1 L 1098 0 L 1091 0 L 1090 1 L 1089 0 L 1084 0 L 1083 1 L 1082 0 L 1070 0 L 1069 1 L 1068 0 L 1051 0 L 1050 1 L 1049 0 L 1044 0 L 1043 1 L 1042 0 L 1036 0 L 1035 1 L 1034 0 L 1030 0 L 1029 1 L 1028 0 L 835 0 L 834 1 L 833 0 L 828 0 L 827 1 L 826 0 L 747 0 L 746 1 L 745 0 L 701 0 L 700 1 L 699 0 L 690 0 L 689 1 L 688 0 L 683 0 L 682 1 L 681 0 L 626 0 L 625 1 L 624 0 L 562 0 L 561 1 L 560 0 L 526 0 L 525 1 L 524 0 L 518 0 L 517 1 L 516 0 L 506 0 L 505 1 L 504 0 Z " fill="none" stroke="blue" stroke-width="1"/>

</svg>